<?xml version="1.0" encoding="UTF-8" standalone="no"?>
<!-- Created with Inkscape (http://www.inkscape.org/) -->

<svg
   width="500"
   height="500"
   viewBox="0 0 132.29174 132.29167"
   version="1.1"
   id="svg5"
   xml:space="preserve"
   inkscape:version="1.2.2 (732a01da63, 2022-12-09)"
   sodipodi:docname="flixlricon.svg"
   xmlns:inkscape="http://www.inkscape.org/namespaces/inkscape"
   xmlns:sodipodi="http://sodipodi.sourceforge.net/DTD/sodipodi-0.dtd"
   xmlns="http://www.w3.org/2000/svg"
   xmlns:svg="http://www.w3.org/2000/svg"><sodipodi:namedview
     id="namedview7"
     pagecolor="#ffffff"
     bordercolor="#000000"
     borderopacity="0.25"
     inkscape:showpageshadow="2"
     inkscape:pageopacity="0.0"
     inkscape:pagecheckerboard="true"
     inkscape:deskcolor="#d1d1d1"
     inkscape:document-units="px"
     showgrid="false"
     inkscape:zoom="1.6290957"
     inkscape:cx="196.12108"
     inkscape:cy="263.6432"
     inkscape:window-width="1824"
     inkscape:window-height="1046"
     inkscape:window-x="-11"
     inkscape:window-y="-11"
     inkscape:window-maximized="1"
     inkscape:current-layer="layer2" /><defs
     id="defs2" /><g
     inkscape:groupmode="layer"
     id="layer2"
     inkscape:label="Layer 2"><path
       style="fill:#000000;fill-opacity:1;stroke-width:1.26384;paint-order:fill markers stroke;stop-color:#000000"
       d="m 112.16444,109.27295 -7.38941,6.77363 c 0,0 2.47537,7.66738 7.79993,11.28938 8.12129,5.52445 15.03709,4.827 15.03709,4.827 l 4.25749,-20.83739 c 0,0 -6.56836,4.92627 -12.93147,4.51574 -5.15763,-0.33274 -6.77363,-6.56836 -6.77363,-6.56836 z"
       id="path2329"
       sodipodi:nodetypes="ccsccsc" /><ellipse
       style="display:inline;fill:#000000;fill-opacity:1;stroke-width:1.06342;paint-order:fill markers stroke;stop-color:#000000"
       id="path1737"
       cx="66.055008"
       cy="66.165932"
       rx="45.524452"
       ry="45.732975"
       inkscape:label="path1737" /><path
       id="path604"
       style="fill:#868686;fill-opacity:1;stroke-width:1.0018;paint-order:fill markers stroke;stop-color:#000000"
       d="M 66.146111,0 A 66.145719,66.145977 0 0 0 0,66.145852 66.145719,66.145977 0 0 0 66.146111,132.29171 66.145719,66.145977 0 0 0 132.29171,66.145852 66.145719,66.145977 0 0 0 66.146111,0 Z m 0.305441,11.925708 A 17.861308,17.861378 0 0 1 84.312606,29.786833 17.861308,17.861378 0 0 1 66.451552,47.648476 17.861308,17.861378 0 0 1 48.589979,29.786833 17.861308,17.861378 0 0 1 66.451552,11.925708 Z M 31.463536,37.901761 A 17.861308,17.861378 0 0 1 49.324591,55.763404 17.861308,17.861378 0 0 1 31.463536,73.624529 17.861308,17.861378 0 0 1 13.601963,55.763404 17.861308,17.861378 0 0 1 31.463536,37.901761 Z m 69.445914,0 A 17.861308,17.861378 0 0 1 118.77051,55.763404 17.861308,17.861378 0 0 1 100.90945,73.624529 17.861308,17.861378 0 0 1 83.047874,55.763404 17.861308,17.861378 0 0 1 100.90945,37.901761 Z M 66.812386,51.181769 a 2.3548385,2.3548477 0 0 1 2.355003,2.354495 2.3548385,2.3548477 0 0 1 -2.355003,2.355012 2.3548385,2.3548477 0 0 1 -2.354484,-2.355012 2.3548385,2.3548477 0 0 1 2.354484,-2.354495 z m -0.392413,8.11441 a 4.8088134,4.5018851 0 0 1 4.808884,4.501909 4.8088134,4.5018851 0 0 1 -4.808884,4.501909 4.8088134,4.5018851 0 0 1 -4.808367,-4.501909 4.8088134,4.5018851 0 0 1 4.808367,-4.501909 z m -10.762397,3.040963 a 2.3548385,2.3548477 0 0 1 2.354484,2.354495 2.3548385,2.3548477 0 0 1 -2.354484,2.355011 2.3548385,2.3548477 0 0 1 -2.355003,-2.355011 2.3548385,2.3548477 0 0 1 2.355003,-2.354495 z m 20.915982,0 a 2.3548385,2.3548477 0 0 1 2.355003,2.354495 2.3548385,2.3548477 0 0 1 -2.355003,2.355011 2.3548385,2.3548477 0 0 1 -2.355002,-2.355011 2.3548385,2.3548477 0 0 1 2.355002,-2.354495 z m -9.761172,9.760693 a 2.3548385,2.3548477 0 0 1 2.355003,2.355012 2.3548385,2.3548477 0 0 1 -2.355003,2.355011 2.3548385,2.3548477 0 0 1 -2.354484,-2.355011 2.3548385,2.3548477 0 0 1 2.354484,-2.355012 z M 44.716572,77.130902 A 17.861308,17.861378 0 0 1 62.577627,94.992544 17.861308,17.861378 0 0 1 44.716572,112.85367 17.861308,17.861378 0 0 1 26.855,94.992544 17.861308,17.861378 0 0 1 44.716572,77.130902 Z m 42.939838,0 A 17.861308,17.861378 0 0 1 105.51746,94.992544 17.861308,17.861378 0 0 1 87.65641,112.85367 17.861308,17.861378 0 0 1 69.794838,94.992544 17.861308,17.861378 0 0 1 87.65641,77.130902 Z" /></g></svg>
